<!--
  - Copyright (c) 2026 Luis Paolo Pepe Barra (@LuisPPB16).
  - All rights reserved.
  -->

<svg xmlns="http://www.w3.org/2000/svg" width="40" height="40" viewBox="0 0 40 40">
    <!-- Back Left Leg -->
    <path d="M12 28 Q 4 25 4 32 Q 4 38 14 38" fill="#388E3C"/>
    <!-- Back Right Leg -->
    <path d="M28 28 Q 36 25 36 32 Q 36 38 26 38" fill="#388E3C"/>

    <!-- Main Body -->
    <path d="M10 38 L 30 38 Q 34 38 32 25 Q 30 12 20 12 Q 10 12 8 25 Q 6 38 10 38" fill="#4CAF50"/>

    <!-- Belly -->
    <ellipse cx="20" cy="28" rx="7" ry="6" fill="#DCEDC8"/>

    <!-- Front Legs -->
    <path d="M16 28 L 16 38" stroke="#388E3C" stroke-width="2" stroke-linecap="round"/>
    <path d="M24 28 L 24 38" stroke="#388E3C" stroke-width="2" stroke-linecap="round"/>
    <path d="M14 38 L 18 38" stroke="#388E3C" stroke-width="2" stroke-linecap="round"/> <!-- Left Foot -->
    <path d="M22 38 L 26 38" stroke="#388E3C" stroke-width="2" stroke-linecap="round"/> <!-- Right Foot -->

    <!-- Eyes (Bulging) -->
    <circle cx="14" cy="12" r="4" fill="#4CAF50"/>
    <circle cx="26" cy="12" r="4" fill="#4CAF50"/>

    <!-- Sclera -->
    <circle cx="14" cy="12" r="2.5" fill="#FFFFFF"/>
    <circle cx="26" cy="12" r="2.5" fill="#FFFFFF"/>

    <!-- Pupils -->
    <circle cx="14" cy="12" r="1" fill="#000000"/>
    <circle cx="26" cy="12" r="1" fill="#000000"/>

    <!-- Mouth -->
    <path d="M16 18 Q 20 20 24 18" stroke="#2E7D32" stroke-width="1" fill="none"/>

    <!-- Tongue (Natural Curve & Tapered) -->
    <!-- Starts at mouth (20,18), curves naturally to shield at (36,4) -->
    <path d="M20 18 C 22 16, 28 12, 36 4" stroke="#F06292" stroke-width="2" fill="none" stroke-linecap="round"/>
    <!-- Sticky tip -->
    <circle cx="36" cy="4" r="1.2" fill="#F06292"/>

    <!-- Broken Security Shield (Symbolizing Vulnerability) -->
    <g transform="translate(33, 1)">
        <!-- Shield Body -->
        <path d="M 0 0 L 6 0 L 6 2 C 6 5 3 7 3 7 C 3 7 0 5 0 2 L 0 0 Z" fill="#E53935"/>
        <!-- Crack -->
        <path d="M 3 0 L 2 2 L 4 4 L 3 7" stroke="#FFFFFF" stroke-width="0.8" fill="none" stroke-linecap="round" stroke-linejoin="round"/>
    </g>
</svg>